<?xml version="1.0" encoding="UTF-8" standalone="no"?>
<!-- Created with Inkscape (http://www.inkscape.org/) -->

<svg
   width="300"
   height="150"
   viewBox="0 0 300 150"
   version="1.1"
   id="svg1"
   inkscape:version="1.3.2 (091e20e, 2023-11-25, custom)"
   sodipodi:docname="picc-logo.svg"
   inkscape:export-filename="picc-logo.png"
   inkscape:export-xdpi="320"
   inkscape:export-ydpi="320"
   xmlns:inkscape="http://www.inkscape.org/namespaces/inkscape"
   xmlns:sodipodi="http://sodipodi.sourceforge.net/DTD/sodipodi-0.dtd"
   xmlns="http://www.w3.org/2000/svg"
   xmlns:svg="http://www.w3.org/2000/svg">
  <sodipodi:namedview
     id="namedview1"
     pagecolor="#b2ead6"
     bordercolor="#000000"
     borderopacity="0"
     inkscape:showpageshadow="2"
     inkscape:pageopacity="0.0"
     inkscape:pagecheckerboard="true"
     inkscape:deskcolor="#d1d1d1"
     inkscape:document-units="px"
     inkscape:zoom="1.770124"
     inkscape:cx="68.074327"
     inkscape:cy="169.76212"
     inkscape:window-width="1920"
     inkscape:window-height="986"
     inkscape:window-x="-11"
     inkscape:window-y="-11"
     inkscape:window-maximized="1"
     inkscape:current-layer="layer1"
     inkscape:export-bgcolor="#ffffffff" />
  <defs
     id="defs1">
    <rect
       x="27.56325"
       y="89.48069"
       width="335.15314"
       height="123.43542"
       id="rect2" />
    <rect
       x="31.158455"
       y="85.486015"
       width="233.28896"
       height="162.18375"
       id="rect1" />
    <rect
       x="31.158455"
       y="85.486015"
       width="233.28896"
       height="162.18375"
       id="rect1-8" />
  </defs>
  <g
     inkscape:label="Lager 1"
     inkscape:groupmode="layer"
     id="layer1"
     transform="translate(0.56493217,-80.220369)">
    <text
       xml:space="preserve"
       id="text1"
       style="font-size:96px;white-space:pre;shape-inside:url(#rect1);display:inline;fill:#1a1a1a;fill-opacity:1"
       inkscape:label="text1"
       transform="matrix(1.0942893,0,0,1.0737369,-7.2192921,-7.0288777)"><tspan
         x="31.158203"
         y="172.64229"
         id="tspan2"><tspan
           style="font-weight:bold;font-family:'Century Gothic';-inkscape-font-specification:'Century Gothic Bold'"
           id="tspan1">PI</tspan></tspan></text>
    <path
       d="m 167.07055,104.31508 a 37,37 0 0 0 -37,37 37,37 0 0 0 37,37 37,37 0 0 0 23.25,-8.34961 l -8.63672,-11.02148 a 22.5,22.5 0 0 1 -14.08398,5.09375 22.5,22.5 0 0 1 -22.5,-22.5 22.5,22.5 0 0 1 22.5,-22.5 22.5,22.5 0 0 1 15.0625,5.79687 l 9.4375,-10.75781 a 37,37 0 0 0 -25.0293,-9.76172 z"
       id="path4"
       inkscape:label="path4"
       style="fill:#1a1a1a;fill-opacity:1" />
    <path
       d="m 239.65111,104.07406 a 37,37 0 0 0 -37,37 37,37 0 0 0 37,37 37,37 0 0 0 23.25,-8.34961 l -8.63672,-11.02148 a 22.5,22.5 0 0 1 -14.08398,5.09375 22.5,22.5 0 0 1 -22.5,-22.5 22.5,22.5 0 0 1 22.5,-22.5 22.5,22.5 0 0 1 15.0625,5.79687 l 9.4375,-10.75781 a 37,37 0 0 0 -25.0293,-9.76172 z"
       id="path4-7"
       style="fill:#1a1a1a;fill-opacity:1" />
    <path
       d="m 240.20039,124.93024 a 16.441418,16.441418 0 0 0 -16.44142,16.44142 16.441418,16.441418 0 0 0 16.44142,16.44142 16.441418,16.441418 0 0 0 10.33143,-3.71025 l -3.83783,-4.89754 a 9.9981596,9.9981596 0 0 1 -6.2584,2.26347 9.9981596,9.9981596 0 0 1 -9.99816,-9.99816 9.9981596,9.9981596 0 0 1 9.99816,-9.99816 9.9981596,9.9981596 0 0 1 6.69321,2.57592 l 4.19368,-4.78037 a 16.441418,16.441418 0 0 0 -11.12209,-4.33775 z"
       id="path4-7-3"
       style="fill:#1a1a1a;fill-opacity:1;stroke-width:0.444363" />
    <path
       d="m 240.40474,135.51488 a 5.8415157,5.8415157 0 0 0 -5.84151,5.84153 5.8415157,5.8415157 0 0 0 5.84151,5.84151 5.8415157,5.8415157 0 0 0 3.67068,-1.31822 l -1.36354,-1.74007 a 3.5522731,3.5522731 0 0 1 -2.22357,0.8042 3.5522731,3.5522731 0 0 1 -3.55227,-3.55228 3.5522731,3.5522731 0 0 1 3.55227,-3.55226 3.5522731,3.5522731 0 0 1 2.37805,0.9152 l 1.48998,-1.69843 a 5.8415157,5.8415157 0 0 0 -3.9516,-1.54118 z"
       id="path4-7-3-2"
       style="fill:#1a1a1a;fill-opacity:1;stroke-width:0.157879" />
    <text
       xml:space="preserve"
       style="font-style:normal;font-variant:normal;font-weight:normal;font-stretch:normal;font-size:29.3333px;font-family:'Microsoft YaHei UI';-inkscape-font-specification:'Microsoft YaHei UI';fill:#ffa73e;fill-opacity:1"
       x="94.061195"
       y="211.00217"
       id="text6"><tspan
         sodipodi:role="line"
         id="tspan6"
         x="94.061195"
         y="211.00217"
         style="font-style:normal;font-variant:normal;font-weight:bold;font-stretch:normal;font-family:'Century Gothic';-inkscape-font-specification:'Century Gothic Bold'">GROUP</tspan></text>
    <rect
       style="fill:#1a1a1a"
       id="rect6"
       width="47.666153"
       height="5.0843859"
       x="35.520111"
       y="197.37318" />
    <rect
       style="fill:#1a1a1a;stroke-width:0.992974"
       id="rect7"
       width="56.259216"
       height="6.4967203"
       x="208.0605"
       y="197.3268"
       inkscape:label="rect7" />
  </g>
</svg>
